<mxfile host="65bd71144e">
    <diagram id="jr_beduXKcvD0mtZ40Yx" name="Page-1">
        <mxGraphModel dx="998" dy="203" grid="1" gridSize="10" guides="1" tooltips="1" connect="1" arrows="1" fold="1" page="1" pageScale="1" pageWidth="850" pageHeight="1100" math="0" shadow="0">
            <root>
                <mxCell id="0"/>
                <mxCell id="1" parent="0"/>
                <mxCell id="7" value="" style="endArrow=classic;html=1;entryX=1;entryY=0.5;entryDx=0;entryDy=0;strokeWidth=2;fillColor=#f8cecc;strokeColor=#b85450;shadow=0;" edge="1" parent="1">
                    <mxGeometry width="50" height="50" relative="1" as="geometry">
                        <mxPoint x="360" y="40" as="sourcePoint"/>
                        <mxPoint x="360" y="130" as="targetPoint"/>
                        <Array as="points">
                            <mxPoint x="320" y="40"/>
                            <mxPoint x="300" y="50"/>
                            <mxPoint x="290" y="70"/>
                            <mxPoint x="290" y="100"/>
                            <mxPoint x="300" y="120"/>
                            <mxPoint x="320" y="130"/>
                        </Array>
                    </mxGeometry>
                </mxCell>
                <mxCell id="2" value="HISTORY(repository)" style="rounded=1;whiteSpace=wrap;html=1;fillColor=#dae8fc;strokeColor=#6c8ebf;" vertex="1" parent="1">
                    <mxGeometry x="360" y="30" width="140" height="60" as="geometry"/>
                </mxCell>
                <mxCell id="3" value="WORKING DIRECTORY" style="rounded=1;whiteSpace=wrap;html=1;fillColor=#f8cecc;strokeColor=#b85450;" vertex="1" parent="1">
                    <mxGeometry x="360" y="190" width="140" height="60" as="geometry"/>
                </mxCell>
                <mxCell id="4" value="STAGING AREA(index)" style="rounded=1;whiteSpace=wrap;html=1;fillColor=#ffe6cc;strokeColor=#d79b00;" vertex="1" parent="1">
                    <mxGeometry x="360" y="110" width="140" height="60" as="geometry"/>
                </mxCell>
                <mxCell id="5" value="" style="endArrow=classic;html=1;entryX=1;entryY=0.5;entryDx=0;entryDy=0;strokeWidth=2;fillColor=#d5e8d4;strokeColor=#82b366;" edge="1" parent="1">
                    <mxGeometry width="50" height="50" relative="1" as="geometry">
                        <mxPoint x="500" y="238" as="sourcePoint"/>
                        <mxPoint x="500" y="148" as="targetPoint"/>
                        <Array as="points">
                            <mxPoint x="540" y="238"/>
                            <mxPoint x="560" y="228"/>
                            <mxPoint x="570" y="208"/>
                            <mxPoint x="570" y="178"/>
                            <mxPoint x="560" y="158"/>
                            <mxPoint x="540" y="148"/>
                        </Array>
                    </mxGeometry>
                </mxCell>
                <mxCell id="6" value="" style="endArrow=classic;html=1;entryX=1;entryY=0.5;entryDx=0;entryDy=0;strokeWidth=2;fillColor=#d5e8d4;strokeColor=#82b366;" edge="1" parent="1">
                    <mxGeometry width="50" height="50" relative="1" as="geometry">
                        <mxPoint x="500" y="138" as="sourcePoint"/>
                        <mxPoint x="500" y="48" as="targetPoint"/>
                        <Array as="points">
                            <mxPoint x="540" y="138"/>
                            <mxPoint x="560" y="128"/>
                            <mxPoint x="570" y="108"/>
                            <mxPoint x="570" y="78"/>
                            <mxPoint x="560" y="58"/>
                            <mxPoint x="540" y="48"/>
                        </Array>
                    </mxGeometry>
                </mxCell>
                <mxCell id="8" value="" style="endArrow=classic;html=1;entryX=1;entryY=0.5;entryDx=0;entryDy=0;strokeWidth=2;fillColor=#f8cecc;strokeColor=#b85450;shadow=0;" edge="1" parent="1">
                    <mxGeometry width="50" height="50" relative="1" as="geometry">
                        <mxPoint x="360" y="140" as="sourcePoint"/>
                        <mxPoint x="360" y="230" as="targetPoint"/>
                        <Array as="points">
                            <mxPoint x="320" y="140"/>
                            <mxPoint x="300" y="150"/>
                            <mxPoint x="290" y="170"/>
                            <mxPoint x="290" y="200"/>
                            <mxPoint x="300" y="220"/>
                            <mxPoint x="320" y="230"/>
                        </Array>
                    </mxGeometry>
                </mxCell>
                <mxCell id="9" value="add" style="text;html=1;align=center;verticalAlign=middle;resizable=0;points=[];autosize=1;strokeColor=none;fillColor=none;" vertex="1" parent="1">
                    <mxGeometry x="570" y="178" width="40" height="30" as="geometry"/>
                </mxCell>
                <mxCell id="10" value="commit" style="text;html=1;align=center;verticalAlign=middle;resizable=0;points=[];autosize=1;strokeColor=none;fillColor=none;" vertex="1" parent="1">
                    <mxGeometry x="560" y="78" width="60" height="30" as="geometry"/>
                </mxCell>
                <mxCell id="11" value="restore staged" style="text;html=1;align=center;verticalAlign=middle;resizable=0;points=[];autosize=1;strokeColor=none;fillColor=none;" vertex="1" parent="1">
                    <mxGeometry x="180" y="178" width="100" height="30" as="geometry"/>
                </mxCell>
            </root>
        </mxGraphModel>
    </diagram>
</mxfile>